<?xml version="1.0" standalone="no"?>
<!DOCTYPE svg PUBLIC "-//W3C//DTD SVG 20010904//EN"
 "http://www.w3.org/TR/2001/REC-SVG-20010904/DTD/svg10.dtd">
<svg version="1.0" xmlns="http://www.w3.org/2000/svg"
 width="512.000000pt" height="512.000000pt" viewBox="0 0 512.000000 512.000000"
 preserveAspectRatio="xMidYMid meet">

<g transform="translate(0.000000,512.000000) scale(0.100000,-0.100000)"
fill="#000000" stroke="none">
<path d="M2102 3559 c-1041 -80 -1841 -395 -2045 -807 -37 -76 -42 -92 -45
-175 -3 -75 0 -104 18 -157 110 -326 599 -609 1323 -765 438 -94 989 -139
1445 -116 280 14 307 16 518 41 1064 130 1794 525 1794 973 0 141 -54 254
-184 382 -330 328 -1048 561 -1921 625 -160 11 -749 11 -903 -1z m1058 -123
c1083 -111 1805 -431 1870 -829 75 -462 -799 -864 -2060 -948 -228 -15 -831
-6 -1035 16 -1268 134 -2023 563 -1816 1031 165 372 958 666 2011 744 182 13
850 4 1030 -14z"/>
<path d="M2260 3394 c-503 -33 -759 -68 -1100 -150 -421 -101 -778 -270 -929
-440 -24 -27 -58 -78 -75 -114 -26 -55 -31 -76 -30 -140 0 -62 5 -85 29 -133
203 -409 1216 -707 2405 -707 1190 0 2207 300 2407 709 23 47 28 69 27 136 0
69 -4 88 -31 140 -172 334 -861 591 -1823 680 -154 15 -754 27 -880 19z m-754
-424 c71 -35 81 -116 17 -141 -60 -22 -114 24 -95 80 10 29 10 31 -24 37 -20
4 -61 1 -92 -5 -177 -35 -323 -189 -354 -373 -27 -158 48 -268 183 -268 45 0
126 29 178 65 87 60 99 41 19 -29 -69 -60 -143 -88 -233 -90 -93 -1 -133 8
-188 45 -82 54 -121 169 -97 285 49 234 285 411 554 413 71 1 99 -3 132 -19z
m1842 -40 c8 -48 -42 -110 -89 -110 -21 0 -49 32 -49 55 0 32 41 88 70 96 31
8 64 -11 68 -41z m-1478 -175 c22 -20 27 -19 33 5 4 17 14 20 61 20 31 0 56
-5 56 -10 0 -6 -31 -99 -70 -209 -38 -109 -70 -203 -70 -210 0 -26 41 -8 78
34 60 68 85 60 33 -11 -55 -77 -140 -131 -187 -120 -35 9 -58 50 -50 89 l6 32
-37 -42 c-77 -86 -162 -108 -222 -57 -73 61 -58 198 34 323 100 136 270 215
335 156z m435 19 c29 -11 35 -48 20 -109 -8 -31 -15 -59 -15 -62 0 -3 23 26
51 66 55 78 97 111 144 111 38 0 51 -9 64 -42 23 -60 -54 -133 -99 -93 -11 10
-20 27 -20 39 0 17 -4 16 -36 -15 -49 -47 -109 -153 -164 -289 l-47 -115 -56
-3 c-31 -2 -57 -1 -57 1 0 2 29 90 65 196 84 250 84 272 2 186 -39 -40 -67
-56 -67 -38 0 16 84 113 118 136 53 35 70 41 97 31z m510 -11 c17 -17 17 -74
-1 -143 -5 -20 -2 -18 16 10 83 131 168 182 222 133 39 -36 4 -133 -48 -133
-24 0 -54 29 -54 51 0 31 -28 11 -74 -55 -55 -77 -79 -124 -131 -256 l-42
-105 -56 -3 c-31 -2 -57 -1 -57 2 0 2 29 91 65 197 36 106 65 200 65 211 0 29
-21 21 -66 -27 -38 -42 -64 -56 -64 -37 0 21 100 128 139 149 53 27 64 28 86
6z m479 9 c2 -4 -27 -94 -65 -200 -62 -173 -80 -242 -64 -242 17 0 64 33 93
64 31 35 52 46 52 27 0 -17 -73 -103 -112 -131 -68 -50 -150 -52 -168 -6 -12
33 6 100 79 295 81 215 72 201 131 201 27 0 51 -4 54 -8z m500 -6 c45 -19 66
-52 66 -102 0 -94 -100 -163 -267 -186 l-93 -12 0 -49 c0 -41 5 -53 31 -79 28
-28 34 -30 79 -25 57 7 96 25 145 68 19 17 42 29 52 27 26 -6 -68 -97 -133
-129 -67 -33 -188 -35 -230 -3 -49 36 -67 70 -72 134 -10 143 90 295 233 353
50 20 145 22 189 3z m354 -2 c26 -18 28 -50 8 -117 -8 -26 -13 -47 -11 -47 2
0 17 22 35 49 17 27 51 68 75 90 37 34 52 41 84 41 60 0 86 -46 60 -104 -30
-64 -121 -51 -110 17 2 15 -16 6 -41 -20 -48 -51 -118 -176 -164 -295 l-46
-118 -54 0 c-32 0 -54 4 -54 11 0 6 30 98 66 206 76 222 75 247 -2 170 -48
-48 -84 -64 -65 -29 22 42 108 126 146 143 49 23 46 22 73 3z"/>
<path d="M1764 2715 c-79 -47 -169 -192 -181 -293 -12 -105 45 -125 126 -44
56 56 141 221 149 289 8 74 -24 90 -94 48z"/>
<path d="M3651 2733 c-50 -25 -104 -106 -131 -195 -7 -24 -6 -28 11 -28 104 0
219 93 219 178 0 30 -26 62 -51 62 -8 0 -29 -8 -48 -17z"/>
</g>
</svg>
